<?xml version="1.0" encoding="UTF-8"?>
<svg xmlns="http://www.w3.org/2000/svg" xmlns:xlink="http://www.w3.org/1999/xlink" width="3001" height="3001" viewBox="0 0 3001 3001">

<path fill-rule="evenodd" fill="rgb(0%, 0%, 0%)" fill-opacity="1" d="M 1495.628906 2138.382812 C 1493.359375 2138.382812 1491.101562 2138.382812 1488.828125 2138.382812 C 1486.570312 2138.382812 1484.300781 2136.117188 1484.300781 2136.117188 L 1482.039062 2133.847656 C 1371.011719 2031.886719 1203.339844 1972.96875 1033.398438 1972.96875 C 940.496094 1972.96875 856.660156 1986.570312 779.621094 2016.027344 C 772.824219 2018.292969 763.761719 2018.292969 759.226562 2013.761719 C 752.429688 2009.230469 750.164062 2002.429688 750.164062 1995.628906 L 750.164062 1166.328125 C 750.164062 1157.269531 756.964844 1148.199219 766.023438 1145.941406 C 820.40625 1125.539062 867.988281 1114.210938 913.304688 1107.421875 L 913.304688 1023.578125 C 913.304688 1012.25 922.367188 1003.191406 933.699219 1000.921875 C 969.953125 996.390625 999.410156 996.390625 1035.660156 996.390625 C 1058.320312 996.390625 1078.71875 996.390625 1101.378906 998.660156 L 1101.378906 885.371094 C 1101.378906 871.769531 1110.441406 862.710938 1124.03125 862.710938 C 1264.519531 862.710938 1402.730469 923.890625 1500.171875 1023.578125 C 1597.601562 921.621094 1735.820312 862.710938 1876.300781 862.710938 C 1889.890625 862.710938 1898.960938 871.769531 1898.960938 885.371094 L 1898.960938 998.660156 C 1921.609375 996.390625 1944.269531 996.390625 1964.671875 996.390625 C 2000.921875 996.390625 2030.378906 996.390625 2062.101562 1000.921875 C 2073.429688 1003.191406 2080.21875 1012.25 2080.21875 1023.578125 L 2080.21875 1107.421875 C 2127.808594 1114.21875 2177.660156 1125.550781 2234.300781 1145.941406 C 2243.371094 1148.199219 2250.160156 1157.269531 2250.160156 1166.328125 L 2250.160156 1995.628906 C 2250.160156 2002.429688 2245.628906 2009.230469 2241.101562 2013.761719 C 2234.300781 2018.289062 2227.511719 2018.289062 2220.710938 2016.027344 C 2143.671875 1986.570312 2059.828125 1972.96875 1966.929688 1972.96875 C 1796.988281 1972.96875 1629.320312 2034.152344 1518.289062 2133.847656 C 1516.738281 2135.398438 1513.570312 2138.382812 1511.488281 2138.382812 C 1500.160156 2138.382812 1497.898438 2138.382812 1495.628906 2138.382812 Z M 1031.128906 1925.390625 C 1194.269531 1925.390625 1355.148438 1977.511719 1472.96875 2068.140625 L 1472.96875 2027.355469 C 1364.210938 1927.660156 1201.070312 1866.480469 1031.128906 1866.480469 C 997.144531 1866.480469 967.691406 1866.480469 935.96875 1871.011719 C 929.167969 1871.011719 922.371094 1871.011719 917.839844 1866.480469 C 913.308594 1861.949219 911.039062 1855.148438 911.039062 1848.359375 L 911.039062 1148.210938 C 874.789062 1152.738281 836.269531 1164.070312 793.21875 1177.660156 L 793.21875 1959.378906 C 865.726562 1936.71875 945.027344 1925.390625 1031.128906 1925.390625 Z M 1518.289062 2027.355469 L 1518.289062 2068.140625 C 1636.109375 1977.511719 1796.988281 1925.390625 1960.128906 1925.390625 C 2046.230469 1925.390625 2125.539062 1936.71875 2200.308594 1961.648438 L 2200.308594 1179.929688 C 2154.988281 1164.070312 2116.46875 1155 2077.960938 1150.46875 L 2077.960938 1850.621094 C 2077.960938 1857.421875 2075.691406 1864.21875 2068.890625 1868.75 C 2064.359375 1873.28125 2057.558594 1875.539062 2050.769531 1873.28125 C 2023.578125 1868.75 1994.121094 1868.75 1960.128906 1868.75 C 1790.191406 1866.480469 1627.050781 1927.660156 1518.289062 2027.355469 Z M 1031.128906 1821.160156 C 1198.800781 1821.160156 1357.410156 1873.28125 1472.96875 1966.179688 L 1472.96875 1891.398438 C 1380.070312 1789.441406 1255.449219 1732.789062 1119.5 1732.789062 C 1105.898438 1732.789062 1096.839844 1723.730469 1096.839844 1710.140625 L 1096.839844 1039.441406 C 1074.179688 1037.179688 1053.789062 1037.179688 1031.128906 1037.179688 C 1003.941406 1037.179688 981.28125 1037.179688 954.089844 1039.441406 L 954.09375 1823.429688 C 981.28125 1821.160156 1003.941406 1821.160156 1031.128906 1821.160156 Z M 1518.289062 1891.398438 L 1518.289062 1966.179688 C 1633.851562 1873.28125 1792.460938 1821.160156 1960.128906 1821.160156 C 1985.058594 1821.160156 2007.710938 1821.160156 2030.371094 1823.429688 L 2030.371094 1039.441406 C 2007.710938 1037.179688 1985.058594 1037.179688 1960.128906 1037.179688 C 1937.46875 1037.179688 1914.808594 1037.179688 1894.421875 1039.441406 L 1894.421875 1710.140625 C 1894.421875 1723.730469 1885.359375 1732.789062 1871.761719 1732.789062 C 1733.550781 1732.789062 1604.390625 1791.710938 1518.289062 1891.398438 Z M 1142.160156 1689.738281 C 1266.78125 1694.28125 1380.070312 1744.128906 1472.96875 1827.960938 L 1472.96875 1062.101562 C 1389.128906 969.199219 1269.039062 910.289062 1142.160156 903.488281 Z M 1518.289062 1062.101562 L 1518.289062 1825.691406 C 1606.660156 1741.859375 1722.21875 1692.011719 1849.101562 1687.480469 L 1849.101562 903.488281 C 1722.21875 910.289062 1602.128906 969.199219 1518.289062 1062.101562 "/>
</svg>
